<?xml version="1.0" encoding="UTF-8" standalone="no"?> <svg width="64" height="64" viewBox="0 0 64 64" fill="none" xmlns="http://www.w3.org/2000/svg">
<path d="M57.39 13.6901L48.84 3.36005C48.7561 3.25879 48.653 3.17509 48.5366 3.11374C48.4203 3.05239 48.293 3.01459 48.162 3.00251C48.031 2.99044 47.8989 3.00432 47.7733 3.04336C47.6477 3.08241 47.5311 3.14585 47.43 3.23005L41.49 8.14005L40 6.28005C39.7953 6.07088 39.5218 5.94298 39.23 5.92005H13.7C11.7612 5.92269 9.90234 6.69338 8.53043 8.06341C7.15852 9.43344 6.38529 11.2912 6.38 13.2301V53.69C6.38529 55.6289 7.15852 57.4867 8.53043 58.8567C9.90234 60.2267 11.7612 60.9974 13.7 61H45.37C47.3097 61.0001 49.17 60.2302 50.5425 58.8596C51.915 57.489 52.6874 55.6297 52.69 53.69V22.1001C52.6633 21.8719 52.5847 21.653 52.46 21.4601L51.29 20.0001L57.29 15.0601C57.4785 14.8877 57.5939 14.6497 57.6125 14.3949C57.631 14.1402 57.5515 13.888 57.39 13.6901V13.6901ZM11.47 16.5101V14.3101C11.47 13.7572 11.5789 13.2097 11.7905 12.699C12.002 12.1882 12.3122 11.7241 12.7031 11.3331C13.4926 10.5436 14.5634 10.1001 15.68 10.1001H31C31.5529 10.1001 32.1003 10.2089 32.6111 10.4205C33.1219 10.6321 33.586 10.9422 33.9769 11.3331C34.3679 11.7241 34.678 12.1882 34.8895 12.699C35.1011 13.2097 35.21 13.7572 35.21 14.3101V16.5101C35.2074 17.6258 34.763 18.6951 33.974 19.4841C33.1851 20.273 32.1158 20.7174 31 20.7201H15.68C14.5643 20.7174 13.495 20.273 12.706 19.4841C11.917 18.6951 11.4726 17.6258 11.47 16.5101ZM40.67 45.7901L33.43 53C32.5476 53.877 31.3541 54.3691 30.11 54.3691C28.866 54.3691 27.6724 53.877 26.79 53L19.55 45.76C18.6707 44.8789 18.1768 43.6849 18.1768 42.44C18.1768 41.1952 18.6707 40.0012 19.55 39.12L26.79 31.8801C27.6711 31.0007 28.8652 30.5069 30.11 30.5069C31.3549 30.5069 32.5489 31.0007 33.43 31.8801L40.67 39.12C41.1099 39.5569 41.4591 40.0765 41.6973 40.6488C41.9356 41.2212 42.0582 41.8351 42.0582 42.4551C42.0582 43.075 41.9356 43.6889 41.6973 44.2612C41.4591 44.8336 41.1099 45.3532 40.67 45.7901ZM50.06 18.4501L42.79 9.67005L47.93 5.41005L55.21 14.1901L50.06 18.4501Z" fill="black"/>
<path d="M31.9999 33.3201C31.4939 32.8163 30.809 32.5334 30.0949 32.5334C29.3809 32.5334 28.696 32.8163 28.1899 33.3201L20.9999 40.5601C20.501 41.0686 20.2214 41.7526 20.2214 42.4651C20.2214 43.1775 20.501 43.8615 20.9999 44.3701L28.2499 51.6101C28.4998 51.8607 28.7967 52.0596 29.1236 52.1953C29.4505 52.331 29.801 52.4008 30.1549 52.4008C30.5089 52.4008 30.8594 52.331 31.1863 52.1953C31.5131 52.0596 31.8101 51.8607 32.0599 51.6101L39.2999 44.3701C39.5506 44.1202 39.7495 43.8233 39.8852 43.4964C40.0209 43.1695 40.0907 42.819 40.0907 42.4651C40.0907 42.1111 40.0209 41.7607 39.8852 41.4338C39.7495 41.1069 39.5506 40.81 39.2999 40.5601L31.9999 33.3201ZM30.1099 47.4901C29.018 47.4796 27.9742 47.0391 27.2048 46.2641C26.4354 45.4891 26.0025 44.4421 25.9999 43.3501C25.9999 41.4401 28.7299 36.6501 29.2799 35.7101C29.3679 35.5585 29.494 35.4328 29.6458 35.3453C29.7976 35.2579 29.9698 35.2119 30.1449 35.2119C30.3201 35.2119 30.4923 35.2579 30.6441 35.3453C30.7959 35.4328 30.922 35.5585 31.0099 35.7101C31.5499 36.6501 34.2799 41.4401 34.2799 43.3501C34.2786 43.8959 34.1697 44.4361 33.9593 44.9398C33.7489 45.4434 33.4412 45.9006 33.0538 46.2852C32.6665 46.6698 32.2071 46.9741 31.7019 47.1809C31.1968 47.3876 30.6558 47.4927 30.1099 47.4901V47.4901Z" fill="black"/>
<path d="M28 43.35C28 43.9176 28.2255 44.4619 28.6268 44.8632C29.0281 45.2646 29.5724 45.49 30.14 45.49C30.7076 45.49 31.2519 45.2646 31.6532 44.8632C32.0545 44.4619 32.28 43.9176 32.28 43.35C32.28 42.56 31.21 40.26 30.14 38.27C29.05 40.26 28 42.56 28 43.35Z" fill="black"/>
</svg>
