<svg version="1.1" id="Layer_1" xmlns="http://www.w3.org/2000/svg" xmlns:xlink="http://www.w3.org/1999/xlink" x="0px" y="0px" viewBox="0 0 35.313 40" style="enable-background:new 0 0 35.313 40;" xml:space="preserve">
<g>
<path d="M34.019,26.209c-0.61-1.752-1.194-3.748-1.219-6.086c-0.001-0.062-0.004-0.084-0.004-0.084
		c0.007-1.222,0.257-1.896,0.571-2.784c0.317-0.877,0.693-1.962,0.688-3.538c0-0.387-0.021-0.806-0.067-1.261
		c0.113-0.006,0.227-0.013,0.34-0.02c-0.169-2.953-1.071-5.798-2.598-8.288c-0.395,0.242-0.788,0.484-1.182,0.726
		c-0.565-0.918-1.22-1.785-1.964-2.584c-0.508,0.473-1.016,0.942-1.523,1.415c0.649,0.699,1.222,1.454,1.713,2.258
		c0.37,0.602,0.692,1.229,0.97,1.875c0.643,1.512,1.027,3.133,1.123,4.798c0.373-0.021,0.748-0.044,1.121-0.064
		c0.045,0.427,0.067,0.809,0.067,1.145c-0.007,1.283-0.259,1.982-0.571,2.864c-0.314,0.869-0.692,1.929-0.688,3.458
		c0.002,0.064,0.003,0.103,0.003,0.119c0.026,2.649,0.697,4.889,1.33,6.708c0.646,1.812,1.205,3.255,1.183,4.084
		c-0.024,0.531-0.104,0.758-0.54,1.138c-0.404,0.319-0.701,0.401-0.933,0.402c-0.447,0.033-1.204-0.462-1.842-1.859
		c-0.628-1.362-1.057-3.422-1.054-5.858c0-0.486,0.018-0.989,0.054-1.505c0.108-1.644,0.157-3.068,0.16-4.309
		c-0.015-3.913-0.467-6-1.335-7.313c-0.614-0.952-1.508-1.291-2.224-1.4V4c0-2.209-1.79-4-4-4H7.2c-2.21,0-4,1.791-4,4v32H0v4h28.8
		v-4h-3.2V12.282c0.189,0.066,0.351,0.198,0.569,0.486c0.466,0.65,1.001,2.444,0.987,6.19c0.002,1.185-0.048,2.567-0.154,4.174
		c-0.038,0.558-0.057,1.107-0.057,1.64c0.002,2.668,0.447,4.968,1.232,6.69c0.772,1.684,1.965,2.995,3.662,3.029
		c0.773,0,1.525-0.315,2.185-0.846c0.89-0.685,1.312-1.727,1.288-2.696C35.29,29.434,34.618,27.971,34.019,26.209z M22.4,15.2h-16
		v-8h16V15.2z" id="id_102" style="fill: rgb(215, 221, 211);"></path>
</g>
</svg>